<?xml version="1.0" standalone="no"?>
<!DOCTYPE svg PUBLIC "-//W3C//DTD SVG 1.1//EN" "http://www.w3.org/Graphics/SVG/1.1/DTD/svg11.dtd" >
<svg xmlns="http://www.w3.org/2000/svg">
<metadata>
<json>
<![CDATA[
{
	"fontFamily": "SportivnoeIcons",
	"fontURL": "https://woothemes.com",
	"designer": "James Koster",
	"designerURL": "http://jameskoster.co.uk",
	"license": "SIL OFL",
	"licenseURL": "http://scripts.sil.org/cms/scripts/page.php?site_id=nrsi&id=OFL",
	"description": "Font generated by IcoMoon.",
	"majorVersion": 1,
	"minorVersion": 0,
	"version": "Version 1.0",
	"fontId": "SportivnoeIcons",
	"psName": "SportivnoeIcons",
	"subFamily": "Regular",
	"fullName": "SportivnoeIcons"
}
]]>
</json>
</metadata>
<defs>
<font id="SportivnoeIcons" horiz-adv-x="1024">
<font-face units-per-em="1024" ascent="877.7142857142858" descent="-146.28571428571428" />
<missing-glyph horiz-adv-x="1024" />
<glyph unicode="&#x20;" horiz-adv-x="256" d="" />
<glyph unicode="&#xe900;" glyph-name="social_twitter" data-tags="social_twitter" d="M817.6 542.4c-22.4-9.6-46.4-16-72-19.2 25.6 16 46.4 40 54.4 68.8-24-14.4-51.2-25.6-80-30.4-22.4 24-56 40-91.2 40-68.8 0-124.8-56-124.8-124.8 0-9.6 1.6-19.2 3.2-28.8-104 4.8-196.8 56-259.2 131.2-11.2-19.2-17.6-40-17.6-62.4 0-43.2 22.4-81.6 56-104-20.8 0-40 6.4-57.6 16 0 0 0-1.6 0-1.6 0-60.8 43.2-112 100.8-123.2-11.2-3.2-22.4-4.8-33.6-4.8-8 0-16 0-24 1.6 16-49.6 62.4-86.4 116.8-86.4-43.2-33.6-97.6-54.4-155.2-54.4-9.6 0-20.8 0-30.4 1.6 56-35.2 121.6-56 192-56 230.4 0 356.8 192 356.8 356.8 0 4.8 0 11.2 0 16 27.2 16 49.6 38.4 65.6 64v0z" />
<glyph unicode="&#xe901;" glyph-name="social_vk" data-tags="social_vk" d="M814.4 182.4c0 1.6-1.6 3.2-1.6 4.8-11.2 20.8-32 44.8-64 73.6v0 0 0 0c-14.4 12.8-24 22.4-27.2 27.2-6.4 9.6-8 17.6-4.8 27.2 3.2 6.4 12.8 20.8 30.4 43.2 9.6 11.2 16 20.8 22.4 28.8 38.4 51.2 56 83.2 49.6 97.6l-1.6 3.2c-1.6 1.6-4.8 3.2-9.6 4.8s-12.8 1.6-20.8 1.6h-96c-1.6 0-3.2 0-6.4 0s-4.8-1.6-4.8-1.6l-1.6-1.6-6.4 1.6c-1.6 0-1.6-1.6-3.2-3.2s-3.2-3.2-3.2-6.4c-11.2-27.2-22.4-51.2-35.2-75.2-8-14.4-16-25.6-22.4-35.2s-12.8-17.6-17.6-22.4c-4.8-4.8-9.6-8-12.8-11.2s-6.4-4.8-8-3.2c-1.6 0-3.2 1.6-6.4 1.6-3.2 1.6-6.4 4.8-8 8s-3.2 8-3.2 12.8c0 4.8-1.6 9.6-1.6 12.8s0 9.6 0 16c0 6.4 0 11.2 0 14.4 0 8 0 17.6 0 27.2s0 17.6 1.6 24c0 6.4 0 11.2 0 17.6s0 11.2-1.6 14.4c0 3.2-1.6 8-3.2 11.2s-3.2 6.4-6.4 8c-3.2 1.6-6.4 3.2-11.2 4.8-11.2 3.2-27.2 4.8-44.8 4.8-41.6 0-68.8-1.6-80-8-4.8-3.2-9.6-6.4-12.8-9.6-4.8-4.8-4.8-8-1.6-8 12.8-1.6 22.4-6.4 28.8-14.4l1.6-4.8c1.6-3.2 3.2-8 4.8-16s3.2-16 3.2-24 1.6-30.4 0-41.6c-1.6-11.2-1.6-20.8-3.2-27.2s-3.2-11.2-4.8-16c-1.6-4.8-3.2-6.4-4.8-8 0-1.6-1.6-1.6-1.6-1.6-3.2-1.6-6.4-1.6-9.6-1.6s-6.4 1.6-11.2 4.8c-4.8 3.2-9.6 8-14.4 12.8s-9.6 12.8-16 22.4c-6.4 9.6-12.8 20.8-19.2 35.2l-4.8 9.6c-3.2 6.4-8 16-14.4 27.2s-11.2 24-16 35.2c-1.6 4.8-4.8 8-8 11.2l-1.6 1.6c-1.6 1.6-3.2 1.6-4.8 3.2 0 0-3.2 0-4.8 0h-91.2c-9.6 0-16-1.6-19.2-6.4l-1.6-1.6c0-1.6-1.6-3.2-1.6-4.8 0-3.2 0-4.8 1.6-9.6 12.8-32 27.2-62.4 43.2-91.2s28.8-52.8 41.6-70.4c11.2-17.6 24-35.2 35.2-51.2 12.8-16 19.2-25.6 24-30.4 3.2-4.8 6.4-8 9.6-9.6l8-8c4.8-4.8 12.8-11.2 24-19.2 9.6-8 22.4-14.4 33.6-22.4 12.8-8 27.2-12.8 43.2-17.6s33.6-6.4 48-4.8h40c8 0 14.4 3.2 17.6 8l1.6 1.6c1.6 1.6 1.6 3.2 3.2 6.4 0 3.2 1.6 6.4 1.6 9.6 0 9.6 0 17.6 1.6 25.6s3.2 12.8 6.4 17.6c1.6 3.2 4.8 6.4 6.4 9.6 3.2 3.2 4.8 4.8 6.4 4.8s1.6 1.6 3.2 1.6c4.8 1.6 11.2 0 19.2-4.8s14.4-11.2 20.8-19.2c6.4-8 14.4-16 22.4-25.6 9.6-9.6 16-16 24-20.8l6.4-4.8c4.8-3.2 9.6-4.8 17.6-8 6.4-1.6 12.8-3.2 19.2-1.6l84.8 1.6c8 0 14.4 1.6 19.2 4.8s8 6.4 8 9.6c1.6 3.2 1.6 6.4 0 11.2-1.6 1.6-3.2 4.8-3.2 6.4z" />
<glyph unicode="&#xe902;" glyph-name="account_personal" data-tags="account_personal" d="M126.4-16v35.2c0 6.4 0 64 41.6 110.4l1.6 1.6c12.8 12.8 49.6 33.6 198.4 100.8 16 8 14.4 64 9.6 81.6-6.4 12.8-9.6 25.6-12.8 41.6v3.2l-3.2 1.6c-4.8 3.2-9.6 8-12.8 12.8-4.8 8-9.6 25.6-12.8 48-4.8 30.4-4.8 49.6 3.2 64 1.6 3.2 3.2 6.4 6.4 8l1.6 3.2v3.2c0 52.8 6.4 105.6 6.4 112l1.6 8 4.8 6.4c3.2 4.8 35.2 48 94.4 62.4 11.2 3.2 12.8 3.2 19.2 9.6 4.8 3.2 11.2 9.6 20.8 16l8 4.8h9.6c1.6 0 4.8 0 6.4 0 75.2 0 137.6-97.6 144-107.2 16-25.6 16-75.2 14.4-118.4v-3.2l1.6-1.6c4.8-8 8-19.2 8-32 0-16-4.8-40-11.2-57.6s-12.8-32-22.4-41.6l-1.6-1.6v-1.6c-1.6-9.6-3.2-17.6-6.4-27.2-1.6-6.4-3.2-12.8-6.4-19.2v-3.2c0-4.8-1.6-19.2 0-38.4 3.2-16 6.4-27.2 11.2-32l1.6-1.6 41.6-19.2c100.8-48 147.2-70.4 163.2-88 25.6-27.2 32-86.4 33.6-102.4l3.2-38.4h-766.4zM425.6 233.6c-6.4-24-19.2-40-36.8-48-70.4-32-168-76.8-184-91.2-16-17.6-22.4-38.4-25.6-52.8l-3.2-8h665.6l-1.6 9.6c-3.2 17.6-9.6 40-17.6 49.6-11.2 11.2-70.4 40-147.2 75.2l-41.6 19.2c-16 8-28.8 24-35.2 49.6l-3.2 9.6-9.6-6.4c-24-16-51.2-24-78.4-24-25.6 0-49.6 6.4-70.4 20.8l-9.6 6.4-1.6-9.6zM518.4 668.8c-4.8-3.2-8-6.4-11.2-8-9.6-8-17.6-14.4-40-19.2-33.6-8-54.4-30.4-62.4-38.4l-1.6-1.6v-3.2c-1.6-16-6.4-59.2-6.4-99.2v-1.6c0-9.6 1.6-24-8-33.6-1.6-1.6-3.2-3.2-4.8-3.2l-3.2-3.2v-4.8c0-12.8 4.8-38.4 8-49.6l1.6-3.2 3.2-1.6c6.4-3.2 14.4-8 16-19.2 1.6-16 3.2-25.6 6.4-33.6l3.2-8c19.2-44.8 48-67.2 86.4-67.2 28.8 0 68.8 19.2 86.4 52.8v0 1.6c0 1.6 1.6 3.2 1.6 4.8 1.6 4.8 3.2 8 4.8 11.2l3.2 12.8 1.6 8c0 4.8 1.6 9.6 1.6 16v11.2l11.2 3.2 1.6 1.6c9.6 11.2 19.2 49.6 20.8 64v3.2l-4.8 3.2c-4.8 4.8-4.8 8-3.2 25.6 3.2 72-3.2 89.6-6.4 96-19.2 30.4-62.4 81.6-99.2 84.8h-3.2l-3.2-1.6z" />
<glyph unicode="&#xe903;" glyph-name="contacts_call" data-tags="contacts_call" d="M668.8 0c-8 0-16 1.6-22.4 3.2-8 1.6-200 52.8-316.8 206.4-116.8 152-115.2 350.4-115.2 360 0 24 12.8 54.4 30.4 70.4l52.8 49.6c9.6 9.6 22.4 14.4 36.8 14.4 16 0 32-8 41.6-20.8l84.8-110.4c9.6-11.2 12.8-27.2 9.6-41.6s-11.2-27.2-24-35.2l-62.4-38.4c-8-4.8-14.4-19.2-14.4-27.2 0 0 4.8-60.8 65.6-140.8 60.8-78.4 116.8-99.2 118.4-99.2s3.2-1.6 8-1.6c9.6 0 19.2 3.2 22.4 8l52.8 48c9.6 9.6 22.4 14.4 35.2 14.4 16 0 32-8 41.6-20.8l84.8-110.4c9.6-12.8 12.8-27.2 9.6-41.6s-11.2-27.2-24-35.2l-62.4-36.8c-12.8-9.6-33.6-14.4-52.8-14.4zM332.8 656c-1.6 0-3.2-1.6-3.2-1.6l-52.8-49.6c-8-8-16-25.6-16-36.8 0-1.6 0-190.4 105.6-329.6 107.2-139.2 288-187.2 291.2-188.8 9.6-3.2 30.4 0 40 6.4l62.4 36.8c1.6 0 1.6 1.6 1.6 3.2s0 3.2-1.6 3.2l-83.2 108.8c-3.2 4.8-4.8 3.2-8 0l-52.8-48c-19.2-17.6-52.8-24-76.8-16-3.2 1.6-70.4 24-140.8 115.2-70.4 92.8-75.2 163.2-75.2 166.4-1.6 25.6 14.4 56 36.8 70.4l60.8 38.4c1.6 1.6 1.6 3.2 3.2 3.2 0 1.6 0 3.2-1.6 4.8l-86.4 112c0 0-1.6 1.6-3.2 1.6z" />
<glyph unicode="&#xe904;" glyph-name="contacts_mail" data-tags="contacts_mail" d="M176 644.8v-587.2h672v587.2h-672zM800 596.8v-80l-286.4-152-289.6 153.6v78.4h576zM224 107.2v356.8l289.6-153.6 286.4 153.6v-356.8h-576z" />
<glyph unicode="&#xe905;" glyph-name="control_arrow_lined_left" data-tags="control_arrow_lined_left" d="M646.4 64c-4.8 0-16 1.6-24 9.6l-278.4 278.4 278.4 278.4c8 8 19.2 9.6 24 9.6s16-1.6 24-9.6c6.4-6.4 9.6-14.4 9.6-24s-3.2-17.6-9.6-24l-230.4-230.4 230.4-230.4c6.4-6.4 9.6-14.4 9.6-24s-3.2-17.6-9.6-24c-9.6-8-19.2-9.6-24-9.6z" />
<glyph unicode="&#xe906;" glyph-name="control_arrow_lined_right" data-tags="control_arrow_lined_right" d="M377.6 64c4.8 0 16 1.6 24 9.6l278.4 278.4-278.4 278.4c-8 8-19.2 9.6-24 9.6s-16-1.6-24-9.6c-6.4-6.4-9.6-14.4-9.6-24s3.2-17.6 9.6-24l230.4-230.4-230.4-230.4c-6.4-6.4-9.6-14.4-9.6-24s3.2-17.6 9.6-24c9.6-8 19.2-9.6 24-9.6z" />
<glyph unicode="&#xe907;" glyph-name="control_arrow_rounded_left" data-tags="control_arrow_rounded_left" d="M512 24c-180.8 0-328 147.2-328 328s147.2 328 328 328 328-147.2 328-328c0-180.8-147.2-328-328-328zM512 638.4c-158.4 0-286.4-128-286.4-286.4s128-286.4 286.4-286.4 286.4 128 286.4 286.4c0 158.4-128 286.4-286.4 286.4zM547.2 273.6c4.8 4.8 6.4 11.2 6.4 17.6s-3.2 12.8-6.4 17.6l-44.8 43.2 44.8 44.8c4.8 4.8 6.4 11.2 6.4 17.6s-3.2 12.8-6.4 17.6c-4.8 4.8-11.2 6.4-17.6 6.4s-12.8-3.2-17.6-6.4l-78.4-80 78.4-78.4c4.8-4.8 11.2-6.4 17.6-6.4s12.8 1.6 17.6 6.4z" />
<glyph unicode="&#xe908;" glyph-name="control_arrow_rounded_right" data-tags="control_arrow_rounded_right" d="M512 680c180.8 0 328-147.2 328-328s-147.2-328-328-328-328 147.2-328 328c0 180.8 147.2 328 328 328zM512 65.6c158.4 0 286.4 128 286.4 286.4s-128 286.4-286.4 286.4-286.4-128-286.4-286.4c0-158.4 128-286.4 286.4-286.4zM476.8 430.4c-4.8-4.8-6.4-11.2-6.4-17.6s3.2-12.8 6.4-17.6l44.8-44.8-44.8-44.8c-4.8-4.8-6.4-11.2-6.4-17.6s3.2-12.8 6.4-17.6c4.8-4.8 11.2-6.4 17.6-6.4s12.8 3.2 17.6 6.4l78.4 78.4-78.4 78.4c-4.8 4.8-11.2 6.4-17.6 6.4s-12.8 1.6-17.6-3.2z" />
<glyph unicode="&#xe909;" glyph-name="control_arrow_rounded_up" data-tags="control_arrow_rounded_up" d="M184 352c0 180.8 147.2 328 328 328s328-147.2 328-328-147.2-328-328-328c-180.8 0-328 147.2-328 328zM798.4 352c0 158.4-128 286.4-286.4 286.4s-286.4-128-286.4-286.4 128-286.4 286.4-286.4c158.4 0 286.4 128 286.4 286.4zM433.6 316.8c4.8-4.8 11.2-6.4 17.6-6.4s12.8 3.2 17.6 6.4l44.8 44.8 44.8-44.8c4.8-4.8 11.2-6.4 17.6-6.4s12.8 3.2 17.6 6.4 6.4 11.2 6.4 17.6-3.2 12.8-6.4 17.6l-81.6 78.4-78.4-78.4c-4.8-4.8-6.4-11.2-6.4-17.6s1.6-12.8 6.4-17.6z" />
<glyph unicode="&#xe90a;" glyph-name="control_checked_roonded" data-tags="control_checked_roonded" d="M486.4 195.2l-168 166.4c-9.6 9.6-9.6 24 0 33.6s24 9.6 33.6 0l129.6-129.6 187.2 222.4c8 9.6 24 11.2 33.6 3.2s11.2-24 3.2-33.6l-219.2-262.4zM900.8 352c0 214.4-174.4 387.2-388.8 387.2s-387.2-172.8-387.2-387.2c0-214.4 174.4-388.8 388.8-388.8s387.2 174.4 387.2 388.8zM852.8 352c0-187.2-152-340.8-340.8-340.8s-339.2 153.6-339.2 340.8c0 187.2 152 340.8 340.8 340.8s339.2-153.6 339.2-340.8z" />
<glyph unicode="&#xe90b;" glyph-name="control_close" data-tags="control_close" d="M512 739.2c-214.4 0-387.2-172.8-387.2-387.2s174.4-388.8 388.8-388.8 387.2 174.4 387.2 388.8c0 214.4-174.4 387.2-388.8 387.2zM512 11.2c-187.2 0-340.8 152-340.8 340.8s153.6 339.2 340.8 339.2c187.2 0 340.8-152 340.8-340.8s-153.6-339.2-340.8-339.2zM662.4 235.2c9.6-9.6 9.6-24 0-33.6-4.8-4.8-11.2-6.4-17.6-6.4s-12.8 1.6-17.6 6.4l-115.2 116.8-116.8-116.8c-4.8-4.8-11.2-6.4-17.6-6.4s-12.8 1.6-17.6 6.4c-9.6 9.6-9.6 24 0 33.6l116.8 116.8-116.8 116.8c-9.6 9.6-9.6 24 0 33.6s24 9.6 33.6 0l116.8-116.8 116.8 116.8c9.6 9.6 24 9.6 33.6 0s9.6-24 0-33.6l-115.2-116.8 116.8-116.8z" />
<glyph unicode="&#xe90c;" glyph-name="control_delete" data-tags="control_delete" d="M697.6 24h-371.2v448h-48v-496h467.2v496h-48zM536 612.8v67.2h-48v-67.2h-251.2v-48h550.4v48z" />
<glyph unicode="&#xe90d;" glyph-name="control_edit" data-tags="control_edit" d="M683.2 60.8h-467.2v467.2h257.6v48h-305.6v-563.2h563.2v268.8h-48zM825.6 659.2c-20.8 20.8-46.4 32-75.2 32s-54.4-11.2-75.2-30.4l-340.8-340.8v-150.4h150.4l339.2 339.2c0 0 0 0 1.6 1.6v0c41.6 41.6 41.6 108.8 0 148.8zM792 544l-1.6-3.2-323.2-321.6-83.2 83.2 323.2 323.2c1.6 1.6 4.8 3.2 6.4 4.8l81.6-81.6c-1.6-1.6-1.6-3.2-3.2-4.8v0z" />
<glyph unicode="&#xe90e;" glyph-name="control_exit" data-tags="control_exit" d="M472 163.2l33.6-33.6 219.2 219.2-219.2 219.2-33.6-33.6 160-161.6h-441.6v-48h441.6zM777.6 716.8h-368c-30.4 0-56-25.6-56-56v-212.8h48v212.8c0 4.8 3.2 8 8 8h368c4.8 0 8-3.2 8-8v-617.6c0-4.8-3.2-8-8-8h-368c-4.8 0-8 3.2-8 8v188.8h-48v-188.8c0-30.4 25.6-56 56-56h368c30.4 0 56 25.6 56 56v617.6c0 30.4-25.6 56-56 56z" />
<glyph unicode="&#xe90f;" glyph-name="control_lined_minus" data-tags="control_lined_minus" d="M171.2 320c-41.6 0-41.6 64 0 64 102.4 0 577.6 0 680 0 41.6 0 41.6-64 0-64-102.4 0-576 0-680 0z" />
<glyph unicode="&#xe910;" glyph-name="control_lined_plus" data-tags="control_lined_plus" d="M852.8 320c-102.4 0-204.8 0-308.8 0 0-102.4 0-204.8 0-308.8 0-41.6-64-41.6-64 0 0 102.4 0 204.8 0 308.8-102.4 0-204.8 0-308.8 0-41.6 0-41.6 64 0 64 102.4 0 204.8 0 308.8 0 0 102.4 0 204.8 0 308.8 0 41.6 64 41.6 64 0 0-102.4 0-204.8 0-308.8 102.4 0 204.8 0 308.8 0 40 0 40-64 0-64z" />
<glyph unicode="&#xe911;" glyph-name="control_rounded_minus" data-tags="control_rounded_minus" d="M512-36.8c-214.4 0-387.2 174.4-387.2 388.8s172.8 387.2 387.2 387.2 388.8-172.8 388.8-387.2-174.4-388.8-388.8-388.8zM512 691.2c-187.2 0-340.8-152-340.8-340.8s153.6-339.2 340.8-339.2 340.8 153.6 340.8 340.8-153.6 339.2-340.8 339.2zM662.4 376c-100.8 0-201.6 0-302.4 0-30.4 0-30.4-48 0-48 100.8 0 201.6 0 302.4 0 32 0 32 48 0 48v0z" />
<glyph unicode="&#xe912;" glyph-name="control_rounded_plus" data-tags="control_rounded_plus" d="M512 739.2c-214.4 0-387.2-172.8-387.2-387.2s174.4-388.8 388.8-388.8 387.2 174.4 387.2 388.8c0 214.4-174.4 387.2-388.8 387.2zM512 11.2c-187.2 0-340.8 152-340.8 340.8 0 187.2 152 340.8 340.8 340.8 187.2 0 340.8-152 340.8-340.8 0-187.2-153.6-340.8-340.8-340.8zM662.4 328h-126.4v-126.4c0-30.4-48-30.4-48 0v126.4h-126.4c-30.4 0-30.4 48 0 48h126.4v126.4c0 30.4 48 30.4 48 0v-126.4h126.4c32 0 32-48 0-48z" />
<glyph unicode="&#xe913;" glyph-name="franchise_1" data-tags="franchise_1" d="M873.6 430.4c4.8 4.8 6.4 11.2 3.2 20.8-27.2 68.8-52.8 137.6-80 206.4-3.2 9.6-11.2 17.6-22.4 17.6-172.8 0-347.2 0-520 0-11.2 0-19.2-8-22.4-17.6-27.2-68.8-52.8-137.6-80-206.4-1.6-1.6-1.6-4.8-1.6-6.4-1.6-3.2-3.2-8-3.2-12.8 3.2-52.8 35.2-92.8 83.2-105.6v-297.6h561.6v299.2c43.2 8 81.6 41.6 81.6 102.4zM339.2 364.8c19.2-25.6 49.6-40 84.8-43.2 35.2-1.6 64 14.4 83.2 40 41.6-51.2 129.6-49.6 171.2 3.2 16-20.8 38.4-32 62.4-38.4v-118.4h-464v115.2c25.6 4.8 48 20.8 62.4 41.6zM276.8 76.8v83.2h465.6v-83.2h-465.6zM704 432c-1.6 30.4-46.4 30.4-48 0-4.8-78.4-121.6-81.6-121.6 0 0 30.4-46.4 30.4-48 0-4.8-78.4-116.8-78.4-121.6 0-1.6 30.4-46.4 30.4-48 0-4.8-78.4-116.8-78.4-121.6 0 0 0 0 0 0 1.6 1.6 1.6 1.6 3.2 3.2 4.8 24 62.4 48 126.4 73.6 188.8 163.2 0 324.8 0 488 0 24-60.8 48-123.2 72-184-1.6-3.2-3.2-6.4-3.2-11.2-3.2-81.6-120-78.4-124.8 0z" />
<glyph unicode="&#xe914;" glyph-name="franchise_2" data-tags="franchise_2" d="M512 694.4c-188.8 0-342.4-153.6-342.4-342.4s153.6-342.4 342.4-342.4c188.8 0 342.4 153.6 342.4 342.4s-153.6 342.4-342.4 342.4zM771.2 492.8h-132.8c-16 62.4-40 113.6-59.2 147.2 81.6-20.8 152-73.6 192-147.2zM806.4 352c0-27.2-4.8-54.4-11.2-80h-144c9.6 62.4 6.4 120-3.2 172.8h144c9.6-28.8 14.4-60.8 14.4-92.8zM512 57.6c-3.2 0-4.8 0-8 0-38.4 57.6-62.4 113.6-76.8 166.4h164.8c-14.4-52.8-38.4-108.8-75.2-168-1.6 1.6-3.2 1.6-4.8 1.6zM417.6 272c-11.2 62.4-8 121.6 1.6 172.8h180.8c9.6-51.2 12.8-108.8 3.2-172.8h-185.6zM217.6 352c0 32 4.8 64 14.4 92.8h140.8c-9.6-51.2-11.2-110.4-3.2-172.8h-140.8c-8 25.6-11.2 52.8-11.2 80zM512 646.4c1.6 0 3.2 0 4.8 0 14.4-20.8 49.6-76.8 72-153.6h-158.4c22.4 78.4 57.6 132.8 72 153.6 3.2 0 6.4 0 9.6 0zM441.6 638.4c-19.2-33.6-43.2-83.2-59.2-145.6h-129.6c38.4 72 107.2 124.8 188.8 145.6zM246.4 224h132.8c12.8-51.2 32-104 64-158.4-86.4 20.8-158.4 80-196.8 158.4zM577.6 64c32 54.4 52.8 108.8 64 160h136c-38.4-80-112-139.2-200-160z" />
<glyph unicode="&#xe915;" glyph-name="head_basket" data-tags="head_basket" d="M859.2 424c-8 12.8-22.4 19.2-38.4 19.2h-75.2c-35.2 73.6-72 145.6-107.2 219.2-14.4 27.2-54.4 3.2-41.6-24 32-65.6 64-129.6 96-195.2h-361.6c32 65.6 64 129.6 96 195.2 12.8 27.2-27.2 52.8-41.6 24-35.2-73.6-72-145.6-107.2-219.2h-75.2c-16 0-30.4-6.4-38.4-19.2s-9.6-27.2-4.8-43.2l115.2-307.2c9.6-25.6 38.4-44.8 65.6-44.8h344c27.2 0 56 19.2 65.6 44.8l113.6 307.2c4.8 16 3.2 32-4.8 43.2zM704 91.2c-3.2-6.4-12.8-14.4-20.8-14.4h-342.4c-8 0-17.6 6.4-20.8 14.4l-113.6 305.6h611.2l-113.6-305.6z" />
<glyph unicode="&#xe916;" glyph-name="head_city" data-tags="head_city" d="M512-65.6l-267.2 307.2c-41.6 57.6-64 124.8-64 196.8 0 182.4 148.8 331.2 332.8 331.2s332.8-148.8 332.8-331.2c0-70.4-22.4-139.2-64-196.8l-1.6-1.6-268.8-305.6zM294.4 280l217.6-248 217.6 248c33.6 46.4 51.2 100.8 51.2 156.8 0 147.2-120 267.2-268.8 267.2s-268.8-120-268.8-267.2c0-56 19.2-110.4 51.2-156.8zM512 284.8c-86.4 0-158.4 70.4-158.4 156.8s70.4 156.8 158.4 156.8 158.4-70.4 158.4-156.8-72-156.8-158.4-156.8zM512 534.4c-51.2 0-94.4-41.6-94.4-92.8s41.6-92.8 94.4-92.8c51.2 0 94.4 41.6 94.4 92.8s-43.2 92.8-94.4 92.8z" />
<glyph unicode="&#xe917;" glyph-name="head_profile" data-tags="head_profile" d="M628.8 356.8l-11.2 4.8 8 8c40 35.2 64 88 64 144 0 102.4-80 187.2-179.2 187.2-97.6 0-177.6-83.2-177.6-187.2 0-54.4 24-107.2 64-144l9.6-8-11.2-4.8c-94.4-48-155.2-152-155.2-264 0-24 3.2-46.4 8-70.4l4.8-19.2h518.4l4.8 19.2c4.8 22.4 8 46.4 8 70.4-1.6 112-62.4 216-155.2 264zM732.8 59.2l-1.6-6.4h-438.4l-1.6 6.4c-1.6 11.2-1.6 22.4-1.6 33.6 0 110.4 67.2 206.4 163.2 235.2 11.2 8 17.6 19.2 17.6 30.4s-6.4 22.4-16 28.8c-1.6 0-3.2 1.6-4.8 3.2l-3.2 1.6c-3.2 1.6-11.2 6.4-11.2 8-33.6 27.2-52.8 68.8-52.8 112 0 76.8 59.2 139.2 129.6 139.2 72 0 131.2-62.4 131.2-139.2 0-43.2-19.2-84.8-52.8-112-1.6-1.6-8-6.4-12.8-8l-1.6-1.6c-1.6-1.6-4.8-3.2-6.4-3.2-9.6-6.4-14.4-17.6-14.4-28.8 0-12.8 6.4-24 17.6-30.4 96-28.8 163.2-124.8 163.2-235.2-1.6-11.2-1.6-22.4-3.2-33.6z" />
<glyph unicode="&#xe918;" glyph-name="head_time" data-tags="head_time" d="M643.2 67.2c-11.2 0-20.8 4.8-27.2 16l-123.2 208v187.2c0 17.6 14.4 32 32 32s32-14.4 32-32v-169.6l115.2-193.6c9.6-14.4 4.8-35.2-11.2-43.2-6.4-3.2-12.8-4.8-17.6-4.8zM955.2 300.8c0-238.4-193.6-432-432-432s-432 193.6-432 432c0 187.2 120 347.2 286.4 406.4v32c0 52.8 43.2 96 96 96h100.8c52.8 0 96-43.2 96-96v-32c166.4-60.8 284.8-220.8 284.8-406.4zM441.6 724.8c25.6 4.8 51.2 8 78.4 8 1.6 0 1.6 0 3.2 0s1.6 0 3.2 0c27.2 0 52.8-3.2 78.4-8v12.8c0 17.6-14.4 32-32 32h-100.8c-17.6 0-32-14.4-32-32v-12.8zM859.2 150.4c17.6 38.4 28.8 80 32 124.8h-30.4c-17.6 0-32 14.4-32 32s14.4 32 32 32h28.8c-4.8 43.2-16 84.8-35.2 121.6l-24-14.4c-4.8-3.2-11.2-4.8-16-4.8-11.2 0-22.4 6.4-27.2 16-9.6 14.4-3.2 35.2 11.2 43.2l22.4 12.8c-24 33.6-54.4 64-89.6 88l-11.2-20.8c-6.4-9.6-17.6-16-27.2-16-4.8 0-11.2 1.6-16 4.8-14.4 9.6-20.8 28.8-11.2 43.2l12.8 20.8c-36.8 17.6-78.4 28.8-120 32v-24c0-17.6-14.4-32-32-32s-32 14.4-32 32v24c-43.2-3.2-83.2-14.4-121.6-32l12.8-22.4c8-14.4 3.2-35.2-11.2-43.2-4.8-3.2-11.2-4.8-16-4.8-11.2 0-22.4 6.4-27.2 16l-12.8 22.4c-35.2-24-65.6-54.4-89.6-88l24-14.4c16-9.6 20.8-28.8 11.2-43.2-6.4-9.6-16-16-27.2-16-4.8 0-11.2 1.6-16 4.8l-28.8 16c-17.6-38.4-30.4-78.4-35.2-123.2h30.4c17.6 0 32-14.4 32-32s-14.4-32-32-32h-32c3.2-44.8 14.4-86.4 32-124.8l28.8 17.6c16 9.6 35.2 3.2 43.2-11.2s3.2-35.2-11.2-43.2l-30.4-17.6c24-36.8 56-67.2 91.2-92.8l17.6 30.4c8 16 28.8 20.8 43.2 11.2 16-9.6 20.8-28.8 11.2-43.2l-14.4-32c38.4-19.2 81.6-30.4 126.4-33.6v36.8c0 17.6 14.4 32 32 32s32-14.4 32-32v-36.8c44.8 4.8 88 16 126.4 35.2l-17.6 30.4c-8 16-3.2 35.2 11.2 43.2 16 8 35.2 3.2 43.2-11.2l17.6-30.4c35.2 25.6 65.6 57.6 91.2 92.8l-28.8 16c-16 9.6-20.8 28.8-11.2 43.2s28.8 20.8 43.2 11.2l27.2-14.4z" />
<glyph unicode="&#xe919;" glyph-name="social_insta" data-tags="social_insta" d="M268.8 635.2h454.4c43.2 0 78.4-35.2 78.4-78.4v-454.4c0-43.2-35.2-78.4-78.4-78.4h-454.4c-43.2 0-78.4 35.2-78.4 78.4v454.4c0 43.2 35.2 78.4 78.4 78.4v0zM636.8 568v0c-14.4 0-27.2-12.8-27.2-27.2v-65.6c0-14.4 12.8-27.2 27.2-27.2h68.8c14.4 0 27.2 12.8 27.2 27.2v65.6c0 14.4-12.8 27.2-27.2 27.2h-68.8zM732.8 376v0h-54.4c4.8-16 8-33.6 8-52.8 0-102.4-84.8-184-190.4-184s-190.4 83.2-190.4 184c0 17.6 3.2 35.2 8 52.8h-56v-259.2c0-12.8 11.2-24 24-24h425.6c12.8 0 24 11.2 24 24v259.2h1.6zM497.6 449.6v0c-67.2 0-123.2-52.8-123.2-118.4s54.4-118.4 123.2-118.4c67.2 0 123.2 52.8 123.2 118.4s-56 118.4-123.2 118.4v0z" />
<glyph unicode="&#xe91a;" glyph-name="social_ok" data-tags="social_ok" d="M716.8 326.4c-9.6 20.8-38.4 36.8-75.2 8-49.6-40-129.6-40-129.6-40s-80 0-129.6 40c-36.8 28.8-64 12.8-75.2-8-17.6-35.2 1.6-51.2 46.4-80 38.4-24 89.6-33.6 123.2-36.8l-28.8-28.8c-40-40-78.4-78.4-104-104-16-16-16-41.6 0-57.6l4.8-4.8c8-8 17.6-11.2 28.8-11.2v0c9.6 0 20.8 3.2 28.8 11.2l104 104c40-40 78.4-78.4 104-104 16-16 41.6-16 57.6 0l4.8 4.8c16 16 16 41.6 0 57.6l-104 104-25.6 27.2c33.6 3.2 84.8 12.8 123.2 36.8 43.2 28.8 64 46.4 46.4 81.6v0zM512 612.8c48 0 88-38.4 88-88 0-48-38.4-86.4-88-86.4s-88 38.4-88 86.4c1.6 48 40 88 88 88v0zM512 347.2c97.6 0 177.6 80 177.6 177.6s-80 177.6-177.6 177.6c-97.6 0-177.6-80-177.6-177.6s80-177.6 177.6-177.6v0z" />
<glyph unicode="&#xe91b;" glyph-name="control_search" data-tags="control_search" d="M854.4 28.8c-64 64-126.4 126.4-190.4 190.4 0 0-1.6 1.6-1.6 1.6 51.2 52.8 84.8 124.8 84.8 204.8 0 160-131.2 291.2-291.2 291.2s-291.2-131.2-291.2-291.2 131.2-291.2 291.2-291.2c64 0 123.2 20.8 171.2 56 1.6-1.6 1.6-3.2 3.2-4.8 64-64 126.4-126.4 190.4-190.4 20.8-22.4 54.4 11.2 33.6 33.6zM211.2 424c0 134.4 108.8 243.2 243.2 243.2s243.2-108.8 243.2-243.2-108.8-243.2-243.2-243.2c-134.4 0-243.2 110.4-243.2 243.2z" />
</font>
</defs>
</svg>
